<svg id="Layer_1" data-name="Layer 1" xmlns="http://www.w3.org/2000/svg" xmlns:xlink="http://www.w3.org/1999/xlink" viewBox="0 0 485 310"><defs><style>.cls-1,.cls-11,.cls-14,.cls-18,.cls-19,.cls-20,.cls-21,.cls-22,.cls-23,.cls-24,.cls-25,.cls-26,.cls-27{fill:none;}.cls-2{fill:#f4da91;}.cls-3{fill:#8b9187;}.cls-4{fill:#b5d88b;}.cls-5{fill:#5b4f27;}.cls-6{fill:#9bce7b;}.cls-7{fill:#ef4f7f;}.cls-8{fill:#f6ceae;}.cls-9{fill:#c6e6dd;}.cls-10{fill:#8d431f;}.cls-11{stroke:#3d5f54;stroke-width:1.79px;}.cls-11,.cls-14,.cls-18,.cls-19,.cls-20,.cls-21,.cls-22,.cls-23,.cls-24,.cls-25,.cls-26,.cls-27{stroke-miterlimit:10;}.cls-12{fill:#f8be58;}.cls-13{clip-path:url(#clip-path);}.cls-14{stroke:#b7853d;stroke-width:0.36px;}.cls-15{fill:#4d62ad;}.cls-16{fill:#f7ecbf;}.cls-17{fill:#954b9d;}.cls-18,.cls-19{stroke:#dde796;}.cls-18{stroke-width:1.07px;}.cls-19{stroke-width:0.74px;}.cls-20,.cls-27{stroke:#ffcc26;}.cls-20,.cls-21,.cls-25{stroke-width:1.89px;}.cls-21{stroke:#ef3641;}.cls-22,.cls-23{stroke:#4cc0b0;}.cls-22,.cls-26{stroke-width:1.28px;}.cls-23{stroke-width:1.17px;}.cls-24,.cls-25,.cls-26{stroke:#d02790;}.cls-24{stroke-width:0.68px;}.cls-27{stroke-width:1.84px;}.cls-28{fill:#454c41;}</style><clipPath id="clip-path"><path class="cls-1" d="M21.17,26c-5.3,5.75,51.76,86,52.08,83.83,1.37-9.38,30.57-35.33,35.42-35.77S26.47,20.29,21.17,26Z"/></clipPath></defs><title>Unicone</title><rect class="cls-2" width="485" height="296.82"/><rect class="cls-3" y="243.06" width="485" height="66.94"/><rect class="cls-4" x="75.67" y="174.29" width="146.92" height="97.37"/><path class="cls-5" d="M168.82,269.61h-37s-.11-37.45,0-47.37,37-11.66,37,0S168.82,269.61,168.82,269.61Z"/><path class="cls-6" d="M222.23,170.88V175s-146.5.74-146.5,7.59l-.06-11.72Z"/><polygon class="cls-7" points="241.29 172.74 55.68 172.74 75.31 119.29 222.23 119.29 241.29 172.74"/><polygon class="cls-8" points="221.81 172.74 201.93 172.74 197.3 119.3 213.64 119.3 221.81 172.74"/><rect class="cls-8" x="168.39" y="119.29" width="21.23" height="53.44"/><rect class="cls-8" x="139.59" y="119.29" width="18.77" height="53.44"/><rect class="cls-8" x="108.86" y="119.29" width="18.77" height="53.44"/><polygon class="cls-8" points="98.52 172.74 75.73 172.74 79.75 119.3 98.52 119.3 98.52 172.74"/><path class="cls-9" d="M113.7,74.83a34.13,34.13,0,0,1,27.67,39.54c-3.38,18.4-20.53,26.67-39.19,23.24S70.42,120.37,73.8,102A34.13,34.13,0,0,1,113.7,74.83Z"/><path class="cls-10" d="M125.36,78.46c12.32,6.22,20.15,21.83,20.15,31.44,0,13.32,23.38,3.69,27.83,10.88,9.84,15.92-45.17,25.07-63.83,21.64-13.26-2.43-17.43-5.73-9.28-15,3.32-3.79,9.47-3.43,18-17.34C128,94.11,108.43,69.9,125.36,78.46Z"/><path class="cls-11" d="M96.44,97.36a10.43,10.43,0,0,0,3.07,1.28,10.18,10.18,0,0,0,5,0,8.37,8.37,0,0,0,5.84-4.78"/><line class="cls-11" x1="97.87" y1="104.37" x2="99.67" y2="98.98"/><line class="cls-11" x1="104.33" y1="98.98" x2="105.41" y2="106.16"/><line class="cls-11" x1="108.27" y1="96.43" x2="112.23" y2="100.78"/><path class="cls-12" d="M21.17,26c-5.3,5.75,51.76,86,52.08,83.83,1.37-9.38,30.57-35.33,35.42-35.77S26.47,20.29,21.17,26Z"/><g class="cls-13"><line class="cls-14" x1="31.55" y1="19.85" x2="31.55" y2="63.8"/><line class="cls-14" x1="25.14" y1="16.98" x2="25.14" y2="60.93"/><line class="cls-14" x1="37.51" y1="25.6" x2="37.51" y2="69.55"/><line class="cls-14" x1="45.68" y1="32.52" x2="45.68" y2="76.47"/><line class="cls-14" x1="53.41" y1="29.66" x2="53.41" y2="97.94"/><line class="cls-14" x1="62.25" y1="33.62" x2="62.25" y2="101.89"/><line class="cls-14" x1="69.76" y1="41.82" x2="69.76" y2="110.1"/><line class="cls-14" x1="79.92" y1="43.59" x2="79.92" y2="111.87"/><line class="cls-14" x1="90.08" y1="43.59" x2="90.08" y2="111.87"/><line class="cls-14" x1="98.25" y1="44.92" x2="98.25" y2="113.19"/><line class="cls-14" x1="42.56" y1="96.36" x2="86.51" y2="96.36"/><line class="cls-14" x1="42.56" y1="102.76" x2="86.51" y2="102.76"/><line class="cls-14" x1="42.56" y1="90.4" x2="86.51" y2="90.4"/><line class="cls-14" x1="42.56" y1="82.22" x2="104.43" y2="82.22"/><line class="cls-14" x1="18.23" y1="74.49" x2="108.67" y2="74.49"/><line class="cls-14" x1="18.23" y1="65.66" x2="111.28" y2="65.66"/><line class="cls-14" x1="18.23" y1="58.15" x2="86.51" y2="58.15"/><line class="cls-14" x1="18.23" y1="47.99" x2="86.51" y2="47.99"/><line class="cls-14" x1="18.23" y1="37.83" x2="86.51" y2="37.83"/><line class="cls-14" x1="18.23" y1="29.66" x2="86.51" y2="29.66"/></g><path class="cls-6" d="M211.52,201.35a10.21,10.21,0,0,1-7,3l-106.82,1.1v0c-6.12-.32-11-6.45-11.12-14-.07-6,3-11.23,7.33-13.29a15.35,15.35,0,0,0-4.42,11.26c.08,7.57,5,13.7,11.13,14v0l106.82-1.1A9.7,9.7,0,0,0,211.52,201.35Z"/><path class="cls-15" d="M208.52,203.35a9.7,9.7,0,0,1-4.09,1L97.61,205.4v0c-6.12-.32-11-6.45-11.13-14A15.35,15.35,0,0,1,90.9,180.1a10.29,10.29,0,0,1,6.42-3v0L204.14,176c6.39-.07,11.64,6.21,11.71,14C215.92,196.09,212.87,201.28,208.52,203.35Z"/><path class="cls-16" d="M200.34,179.07l-98.74,1v0a11,11,0,0,0,.23,22v0l98.74-1a11,11,0,0,0-.23-22Z"/><path class="cls-17" d="M97.79,187l2.08,0,.07,6.29a1,1,0,0,0,.24.7.82.82,0,0,0,.63.25.81.81,0,0,0,.64-.29,1,1,0,0,0,.23-.75l-.06-6.22,2.07,0,.06,5.86a4.89,4.89,0,0,1-.3,1.92,2.11,2.11,0,0,1-.91,1.07,3.63,3.63,0,0,1-1.71.36,2.77,2.77,0,0,1-2.29-.81,4.51,4.51,0,0,1-.69-2.79Z"/><path class="cls-17" d="M105.52,187l2,0,2.63,5.13-.09-1,0-4.19,2,0,.09,8.94-2.08,0-2.58-5.05.07,1.11,0,4-2,0Z"/><path class="cls-17" d="M114.09,186.86l2,0,.09,8.93-2,0Z"/><path class="cls-17" d="M122.86,193.6l0,2.12a3.74,3.74,0,0,1-1.15.22,3.54,3.54,0,0,1-2.86-1.29,5.26,5.26,0,0,1-1.13-3.47,4.87,4.87,0,0,1,1.07-3.31,3.48,3.48,0,0,1,2.77-1.33,3.9,3.9,0,0,1,1.21.16l0,2.13a3.16,3.16,0,0,0-1.1-.18,1.56,1.56,0,0,0-1.3.73,3.64,3.64,0,0,0,0,3.75,1.67,1.67,0,0,0,1.41.68A2.94,2.94,0,0,0,122.86,193.6Z"/><path class="cls-17" d="M127.11,195.88a2.8,2.8,0,0,1-2.48-1.21,6.23,6.23,0,0,1-.89-3.58,5.7,5.7,0,0,1,.82-3.37,2.73,2.73,0,0,1,2.36-1.24,2.86,2.86,0,0,1,2.5,1.19,6,6,0,0,1,.9,3.45,6.23,6.23,0,0,1-.81,3.5A2.76,2.76,0,0,1,127.11,195.88Zm-.15-7.37c-.73,0-1.09.87-1.07,2.59a5.69,5.69,0,0,0,.3,2.21.88.88,0,0,0,.81.55,1,1,0,0,0,.87-.57,5.11,5.11,0,0,0,.28-2.17C128.13,189.37,127.73,188.5,127,188.51Z"/><path class="cls-17" d="M131.78,186.68l2.05,0,2.63,5.13-.09-1,0-4.18,2,0,.09,8.94-2.08,0-2.58-5,.07,1.11,0,4-2,0Z"/><path class="cls-17" d="M140.28,186.59l4.1,0,0,1.9-2.08,0,0,1.65,1.8,0,0,1.86h-1.8l0,1.63,2.08,0,0,1.91-4.11,0Z"/><path class="cls-17" d="M149.43,186.5l2,0,.09,8.93-2,0Z"/><path class="cls-17" d="M158.19,193.24l0,2.12a4.12,4.12,0,0,1-1.15.22,3.54,3.54,0,0,1-2.87-1.29,5.26,5.26,0,0,1-1.13-3.47,4.92,4.92,0,0,1,1.07-3.31,3.49,3.49,0,0,1,2.78-1.33,3.83,3.83,0,0,1,1.2.16l0,2.13a3.49,3.49,0,0,0-1.1-.19,1.57,1.57,0,0,0-1.31.74,3.06,3.06,0,0,0-.5,1.85,3.12,3.12,0,0,0,.54,1.89,1.66,1.66,0,0,0,1.41.69A2.94,2.94,0,0,0,158.19,193.24Z"/><path class="cls-17" d="M159.44,186.4l4.1,0,0,1.9-2.08,0,0,1.65,1.8,0,0,1.85-1.8,0,0,1.63,2.08,0,0,1.91-4.11,0Z"/><path class="cls-17" d="M173.27,193.08l0,2.13a3.7,3.7,0,0,1-1.15.21,3.49,3.49,0,0,1-2.86-1.29,5.23,5.23,0,0,1-1.13-3.46,4.9,4.9,0,0,1,1.07-3.32A3.5,3.5,0,0,1,172,186a4.22,4.22,0,0,1,1.21.16l0,2.13a3.71,3.71,0,0,0-1.1-.18,1.57,1.57,0,0,0-1.3.74,3.05,3.05,0,0,0-.5,1.84,3,3,0,0,0,.54,1.9,1.65,1.65,0,0,0,1.41.68A3,3,0,0,0,173.27,193.08Z"/><path class="cls-17" d="M174.51,186.25l2.37,0a3.28,3.28,0,0,1,2.26.71,2.77,2.77,0,0,1,.55,3.25,2.08,2.08,0,0,1-.9.93l1.66,4-2.15,0-1.68-4h0l0,4.07-2,0Zm2.05,1.7,0,2.12c.9,0,1.34-.34,1.34-.95a1.13,1.13,0,0,0-.33-.89A1.61,1.61,0,0,0,176.56,188Z"/><path class="cls-17" d="M181.5,186.17l4.1,0,0,1.9-2.07,0v1.65l1.8,0,0,1.86h-1.8l0,1.63,2.09,0,0,1.9-4.12.05Z"/><path class="cls-17" d="M193.56,195l-2.11,0-.36-1.49-2.14,0-.34,1.5-2.07,0,2.28-9,2.27,0Zm-2.87-3.06c-.32-1.33-.56-2.59-.73-3.79h0c-.15,1.24-.36,2.5-.64,3.8Z"/><path class="cls-17" d="M195.14,186l2.56,0c.39,1.92.69,3.58.91,5l.21-1.39c.08-.54.17-1.06.27-1.58l.38-2,2.61,0,1.11,8.93-2,0-.6-6.14-1.19,6.15-1.37,0-1.38-6.14-.45,6.16-1.93,0Z"/><path class="cls-15" d="M264.52,110.17h3.79v11.45a1.79,1.79,0,0,0,.43,1.27,1.62,1.62,0,0,0,2.31,0,2,2,0,0,0,.44-1.38V110.17h3.76v10.67a8.88,8.88,0,0,1-.57,3.49,3.88,3.88,0,0,1-1.69,1.93,6.49,6.49,0,0,1-3.11.62c-2,0-3.35-.5-4.15-1.51s-1.21-2.71-1.21-5.1Z"/><path class="cls-15" d="M278.84,110.17h3.72l4.69,9.38-.13-1.76v-7.62h3.68v16.26H287l-4.59-9.23.1,2v7.21h-3.69Z"/><path class="cls-15" d="M294.68,110.17h3.69v16.26h-3.69Z"/><path class="cls-15" d="M310.76,122.59v3.86a7,7,0,0,1-2.09.38,6.42,6.42,0,0,1-5.2-2.41,9.62,9.62,0,0,1-2-6.32,9,9,0,0,1,2-6,6.37,6.37,0,0,1,5.08-2.37,7.19,7.19,0,0,1,2.19.32v3.87a6.49,6.49,0,0,0-2-.35,2.85,2.85,0,0,0-2.38,1.31,5.55,5.55,0,0,0-.95,3.35,5.72,5.72,0,0,0,.95,3.47,3.06,3.06,0,0,0,2.55,1.27A5.54,5.54,0,0,0,310.76,122.59Z"/><path class="cls-15" d="M318.69,126.83a5.1,5.1,0,0,1-4.49-2.26,11.5,11.5,0,0,1-1.55-6.52,10.47,10.47,0,0,1,1.56-6.13,5,5,0,0,1,4.33-2.2,5.21,5.21,0,0,1,4.52,2.21,10.78,10.78,0,0,1,1.56,6.29,11.14,11.14,0,0,1-1.54,6.35A5,5,0,0,1,318.69,126.83Zm-.13-13.42q-2,0-2,4.69a10.37,10.37,0,0,0,.51,4,1.58,1.58,0,0,0,1.47,1,1.74,1.74,0,0,0,1.58-1,9.32,9.32,0,0,0,.56-4Q320.68,113.42,318.56,113.41Z"/><path class="cls-15" d="M327.61,110.17h3.73l4.69,9.38-.14-1.76v-7.62h3.69v16.26h-3.79l-4.59-9.23.1,2v7.21h-3.69Z"/><path class="cls-15" d="M343.33,110.17h7.46v3.46H347v3h3.28V120H347v3h3.8v3.47h-7.48Z"/><path class="cls-15" d="M360.47,110.17h3.69v16.26h-3.69Z"/><path class="cls-15" d="M376.55,122.59v3.86a7,7,0,0,1-2.1.38,6.41,6.41,0,0,1-5.19-2.41,9.57,9.57,0,0,1-2-6.32,9,9,0,0,1,2-6,6.37,6.37,0,0,1,5.08-2.37,7.29,7.29,0,0,1,2.19.32v3.87a6.54,6.54,0,0,0-2-.35,2.87,2.87,0,0,0-2.39,1.31,6.56,6.56,0,0,0,0,6.82,3.06,3.06,0,0,0,2.55,1.27A5.54,5.54,0,0,0,376.55,122.59Z"/><path class="cls-15" d="M379.18,110.17h7.47v3.46h-3.78v3h3.28V120h-3.28v3h3.8v3.47h-7.49Z"/><path class="cls-15" d="M404.73,122.59v3.86a7,7,0,0,1-2.1.38,6.41,6.41,0,0,1-5.19-2.41,9.57,9.57,0,0,1-2-6.32,9,9,0,0,1,2-6,6.37,6.37,0,0,1,5.08-2.37,7.29,7.29,0,0,1,2.19.32v3.87a6.49,6.49,0,0,0-2-.35,2.87,2.87,0,0,0-2.39,1.31,6.56,6.56,0,0,0,0,6.82A3.06,3.06,0,0,0,402.9,123,5.54,5.54,0,0,0,404.73,122.59Z"/><path class="cls-15" d="M407.36,110.17h4.3a6,6,0,0,1,4.12,1.34,4.66,4.66,0,0,1,1.51,3.64,4.84,4.84,0,0,1-.58,2.29,3.8,3.8,0,0,1-1.66,1.66l2.94,7.33H414.1l-3-7.41h-.06v7.41h-3.69Zm3.69,3.14v3.86c1.63,0,2.45-.6,2.45-1.71a2,2,0,0,0-.57-1.62A3,3,0,0,0,411.05,113.31Z"/><path class="cls-15" d="M420.32,110.17h7.47v3.46H424v3h3.28V120H424v3h3.8v3.47h-7.49Z"/><path class="cls-15" d="M442.34,126.43h-3.83l-.62-2.72H434l-.64,2.72h-3.77l4.31-16.26H438Zm-5.16-5.64q-.82-3.63-1.24-6.9h-.05c-.29,2.24-.7,4.55-1.23,6.9Z"/><path class="cls-15" d="M445.64,110.17h4.66c.67,3.51,1.19,6.52,1.57,9l.4-2.52c.17-1,.34-1.94.53-2.87l.72-3.66h4.76l1.85,16.26h-3.66l-1-11.18-2.28,11.18h-2.49l-2.39-11.2-.95,11.2h-3.5Z"/><path class="cls-15" d="M264.62,139.82h3.75c2.18,0,3.76.43,4.71,1.29a4.18,4.18,0,0,1,1.44,3.27,3.91,3.91,0,0,1-2.09,3.44,3.52,3.52,0,0,1,2.37,3.57,4.3,4.3,0,0,1-1.47,3.4,5.71,5.71,0,0,1-3.89,1.29h-4.82Zm3.69,3.12v3.51c1.65,0,2.47-.62,2.47-1.72a1.54,1.54,0,0,0-.59-1.38A3.77,3.77,0,0,0,268.31,142.94Zm0,6.45v3.52a4.4,4.4,0,0,0,2.1-.43,1.42,1.42,0,0,0,.7-1.34c0-1.16-.83-1.75-2.5-1.75Z"/><path class="cls-15" d="M277.72,139.82h3.69v16.26h-3.69Z"/><path class="cls-15" d="M285.26,139.82H289v12.5h2.92v3.76h-6.61Z"/><path class="cls-15" d="M294.62,139.82h3.69v12.5h2.92v3.76h-6.61Z"/><path class="cls-15" d="M304,139.82h3.75q3.28,0,4.72,1.29a4.21,4.21,0,0,1,1.43,3.27,3.91,3.91,0,0,1-2.09,3.44,3.52,3.52,0,0,1,2.37,3.57,4.3,4.3,0,0,1-1.47,3.4,5.69,5.69,0,0,1-3.89,1.29H304Zm3.69,3.12v3.51c1.65,0,2.47-.62,2.47-1.72a1.51,1.51,0,0,0-.59-1.38A3.77,3.77,0,0,0,307.66,142.94Zm0,6.45v3.52a4.34,4.34,0,0,0,2.1-.43,1.42,1.42,0,0,0,.7-1.34c0-1.16-.83-1.75-2.49-1.75Z"/><path class="cls-15" d="M322.23,156.48a5.1,5.1,0,0,1-4.49-2.26,11.5,11.5,0,0,1-1.55-6.52,10.54,10.54,0,0,1,1.55-6.13,5,5,0,0,1,4.33-2.2,5.23,5.23,0,0,1,4.53,2.21,10.8,10.8,0,0,1,1.56,6.29,11.14,11.14,0,0,1-1.54,6.35A5,5,0,0,1,322.23,156.48Zm-.13-13.42c-1.33,0-2,1.57-2,4.69a10.37,10.37,0,0,0,.51,4,1.58,1.58,0,0,0,1.46,1,1.74,1.74,0,0,0,1.59-1,9.32,9.32,0,0,0,.56-4Q324.22,143.07,322.1,143.06Z"/><path class="cls-15" d="M342.05,156.08h-3.84l-.62-2.72h-3.9l-.64,2.72h-3.76l4.31-16.26h4.14Zm-5.17-5.64q-.83-3.63-1.24-6.9h-.05q-.43,3.38-1.23,6.9Z"/><path class="cls-15" d="M344.16,139.82h4.3a6,6,0,0,1,4.11,1.34,4.62,4.62,0,0,1,1.51,3.64,5,5,0,0,1-.57,2.29,3.78,3.78,0,0,1-1.67,1.66l3,7.33h-3.9l-3-7.4h-.06v7.4h-3.69Zm3.69,3.15v3.86c1.63,0,2.45-.61,2.45-1.72a2,2,0,0,0-.57-1.62A3,3,0,0,0,347.85,143Z"/><path class="cls-15" d="M357.12,139.82h3.45a7,7,0,0,1,5.44,2,8.57,8.57,0,0,1,1.86,6,10.63,10.63,0,0,1-.92,4.8,5.63,5.63,0,0,1-2.57,2.64,8,8,0,0,1-3.64.82h-3.62Zm3.69,3.46v9.33a3,3,0,0,0,2.37-1.19,6.3,6.3,0,0,0,.7-3.43,10.18,10.18,0,0,0-.24-2.39,3.55,3.55,0,0,0-.73-1.51,2,2,0,0,0-.94-.65A6.23,6.23,0,0,0,360.81,143.28Z"/><path class="cls-15" d="M273.16,182.17V186a6.94,6.94,0,0,1-2.1.37,6.43,6.43,0,0,1-5.19-2.4,9.58,9.58,0,0,1-2-6.33,8.94,8.94,0,0,1,2-6A6.37,6.37,0,0,1,271,169.3a7.31,7.31,0,0,1,2.2.31v3.88a6.28,6.28,0,0,0-2-.36,2.86,2.86,0,0,0-2.39,1.32,6.55,6.55,0,0,0,0,6.81,3,3,0,0,0,2.55,1.27A5.77,5.77,0,0,0,273.16,182.17Z"/><path class="cls-15" d="M281.09,186.4a5.1,5.1,0,0,1-4.49-2.25,11.44,11.44,0,0,1-1.55-6.52,10.5,10.5,0,0,1,1.55-6.13,5,5,0,0,1,4.33-2.2,5.19,5.19,0,0,1,4.52,2.2,10.74,10.74,0,0,1,1.57,6.3,11.27,11.27,0,0,1-1.54,6.35A5,5,0,0,1,281.09,186.4ZM281,173c-1.34,0-2,1.56-2,4.68a10.6,10.6,0,0,0,.5,4,1.58,1.58,0,0,0,1.47,1,1.72,1.72,0,0,0,1.59-1,9.33,9.33,0,0,0,.55-3.95C283.07,174.57,282.37,173,281,173Z"/><path class="cls-15" d="M291.19,169.75h4.66c.67,3.5,1.19,6.52,1.57,9l.41-2.52c.16-1,.33-1.94.52-2.87l.72-3.65h4.76L305.68,186H302l-1-11.17L298.76,186h-2.49l-2.39-11.2-.95,11.2h-3.49Z"/><path class="cls-15" d="M310,169.75h4.66c.67,3.5,1.19,6.52,1.57,9l.41-2.52c.16-1,.33-1.94.52-2.87l.72-3.65h4.76L324.51,186h-3.65l-1-11.17L317.59,186H315.1l-2.39-11.2-.95,11.2h-3.49Z"/><path class="cls-15" d="M327.67,169.75h7.46v3.46h-3.77v3h3.27v3.37h-3.27v3h3.8V186h-7.49Z"/><path class="cls-15" d="M338.32,169.75h4.29a6,6,0,0,1,4.12,1.34,4.59,4.59,0,0,1,1.51,3.64,4.91,4.91,0,0,1-.57,2.28,3.73,3.73,0,0,1-1.67,1.66L349,186h-3.9l-3-7.4H342V186h-3.68Zm3.68,3.14v3.86c1.64,0,2.45-.61,2.45-1.72a2.08,2.08,0,0,0-.56-1.62A3,3,0,0,0,342,172.89Z"/><path class="cls-15" d="M351.41,169.75h3.69V186h-3.69Z"/><path class="cls-15" d="M367.49,182.17V186a6.94,6.94,0,0,1-2.09.37,6.44,6.44,0,0,1-5.2-2.4,9.63,9.63,0,0,1-2-6.33,8.94,8.94,0,0,1,2-6,6.37,6.37,0,0,1,5.08-2.37,7.29,7.29,0,0,1,2.19.31v3.88a6.23,6.23,0,0,0-2-.36,2.84,2.84,0,0,0-2.38,1.32,5.51,5.51,0,0,0-.95,3.35,5.62,5.62,0,0,0,.95,3.46,3,3,0,0,0,2.55,1.27A5.77,5.77,0,0,0,367.49,182.17Z"/><path class="cls-15" d="M381.5,186h-3.84l-.62-2.71h-3.9L372.5,186h-3.76l4.31-16.25h4.14Zm-5.17-5.63c-.55-2.42-1-4.73-1.24-6.91h0q-.44,3.38-1.23,6.91Z"/><path class="cls-15" d="M383.61,169.75h3.69v12.49h2.92V186h-6.61Z"/><path class="cls-18" d="M137.69,116.55s-6,0-8.13-1.29"/><path class="cls-19" d="M157.55,128.37s-1.65,4.86-2.87,6.23"/><path class="cls-18" d="M117.57,135s-3.29,4.49-5.54,5.21"/><path class="cls-20" d="M128.16,137.05s-5.38-.79-7-1.84"/><line class="cls-20" x1="102.02" y1="130.89" x2="100.27" y2="129.25"/><path class="cls-21" d="M128.68,98.27s-1.23,3.42-3.33,3.6"/><line class="cls-21" x1="164.53" y1="127.85" x2="161.47" y2="125.66"/><path class="cls-22" d="M134.19,109.54s-7.09,1.18-9.26,0"/><path class="cls-23" d="M148.3,124.82s-3.79,3.69-5.83,3.25"/><path class="cls-22" d="M138.57,123.42s-6.62,2.79-9,2.15"/><path class="cls-24" d="M150.79,117.93s-3.48,2.57-4.9,2.73"/><path class="cls-25" d="M123.91,123.39s-2,2-4.13,1.66"/><line class="cls-20" x1="147.56" y1="135.65" x2="142.93" y2="136.13"/><line class="cls-21" x1="117.3" y1="130.96" x2="112.31" y2="131.48"/><path class="cls-26" d="M128.22,116.91s-6.63,2.79-9,2.14"/><path class="cls-18" d="M167.3,119.29s-3.29,4.49-5.54,5.21"/><path class="cls-18" d="M115.3,124.45s-5.49.86-7.59-.21"/><line class="cls-20" x1="134.44" y1="140.67" x2="132.88" y2="140.41"/><line class="cls-27" x1="123.71" y1="87.8" x2="127.01" y2="84.53"/><line class="cls-21" x1="133.66" y1="93.83" x2="129.03" y2="92.43"/><line class="cls-21" x1="137.71" y1="134.37" x2="134.65" y2="132.18"/><line class="cls-21" x1="139.59" y1="106.42" x2="132.76" y2="104.67"/><path class="cls-25" d="M108.74,134.19s-5.15,3.55-6.72,0"/><rect class="cls-28" x="123.91" y="268.1" width="51.98" height="5.56"/></svg>